<svg width="1753" height="562" viewBox="0 0 1753 562" fill="none" xmlns="http://www.w3.org/2000/svg">
<path d="M405 263C378.5 253 346.998 236.53 329.697 219.928C294.197 185.862 282.697 153.298 283.697 114.222C284.697 75.1462 313.197 27.5536 350.197 0C264.197 37.5731 234.697 71.1384 224.697 110.715C214.697 150.292 224.697 189.368 258.197 219.928C293.5 252.132 348.5 267 405 263Z" fill="url(#paint0_radial_59053_802)"/>
<path d="M223.686 278.998L223.683 278.996C221.322 277.589 219.36 276.42 217.934 275.514C210.088 270.528 176.381 248.867 162.197 235.928C128.697 205.368 118.697 166.292 128.697 126.715C138.697 87.1384 168.197 53.5731 254.197 16C217.197 43.5536 188.697 91.1462 187.697 130.222C186.697 169.298 198.197 201.862 233.697 235.928C248.837 250.457 273.068 264.66 284.618 271.43C286.267 272.396 287.657 273.211 288.725 273.854C297.28 279 324.508 297.133 338.692 310.072C372.192 340.632 382.192 379.708 372.192 419.285C362.192 458.862 332.692 492.427 246.692 530C283.692 502.446 312.192 454.854 313.192 415.778C314.192 376.702 302.692 344.138 267.192 310.072C253.036 296.487 234.32 285.335 223.686 278.998Z" fill="url(#paint1_radial_59053_802)"/>
<path d="M127.686 294.998L127.684 294.997C125.323 293.59 123.36 292.42 121.934 291.514C114.088 286.528 80.3815 264.867 66.197 251.928C32.697 221.368 22.697 182.292 32.697 142.715C42.697 103.138 72.1972 69.5731 158.197 32C121.197 59.5536 92.697 107.146 91.697 146.222C90.697 185.298 102.197 217.862 137.697 251.928C152.837 266.457 177.068 280.66 188.618 287.43C190.266 288.396 191.657 289.211 192.725 289.854C201.28 295 228.508 313.133 242.692 326.072C276.192 356.632 286.192 395.708 276.192 435.285C266.192 474.862 236.692 508.427 150.692 546C187.692 518.446 216.192 470.854 217.192 431.778C218.192 392.702 206.692 360.138 171.192 326.072C157.036 312.487 138.32 301.335 127.686 294.998Z" fill="url(#paint2_radial_59053_802)"/>
<path d="M75.303 342.072C58.0017 325.47 26.5 309 0 299C56.5 295 111.5 309.868 146.803 342.072C180.303 372.632 190.303 411.708 180.303 451.285C170.303 490.862 140.803 524.427 54.8029 562C91.8029 534.446 120.303 486.854 121.303 447.778C122.303 408.702 110.803 376.138 75.303 342.072Z" fill="url(#paint3_radial_59053_802)"/>
<path d="M1718.3 413V164.96H1752.86V413H1718.3Z" fill="#161D1D"/>
<path d="M1492.01 413L1558.61 164.96H1627.37L1693.97 413H1659.05L1642.85 353.6H1542.77L1526.57 413H1492.01ZM1549.61 324.08H1636.37L1601.81 193.76H1584.17L1549.61 324.08Z" fill="#161D1D"/>
<path d="M1310.36 416.6C1293.32 416.6 1280.36 411.92 1271.48 402.56C1262.6 393.2 1258.16 379.4 1258.16 361.16C1258.16 348.92 1260.32 339.08 1264.64 331.64C1268.96 323.96 1275.32 318.2 1283.72 314.36C1292.36 310.52 1303.04 308.24 1315.76 307.52L1367.96 302.48V288.44C1367.96 277.16 1365.44 269.24 1360.4 264.68C1355.36 259.88 1347.8 257.48 1337.72 257.48C1331.48 257.48 1324.16 257.72 1315.76 258.2C1307.36 258.68 1299.08 259.28 1290.92 260C1282.76 260.72 1275.44 261.44 1268.96 262.16L1267.52 237.68C1273.52 236.24 1280.6 234.92 1288.76 233.72C1297.16 232.52 1305.92 231.44 1315.04 230.48C1324.16 229.52 1332.56 229.04 1340.24 229.04C1354.4 229.04 1366.04 231.08 1375.16 235.16C1384.28 239.24 1391 245.6 1395.32 254.24C1399.64 262.88 1401.8 274.04 1401.8 287.72V376.28C1402.28 381.08 1404.2 384.68 1407.56 387.08C1411.16 389.24 1415.6 390.68 1420.88 391.4L1419.8 416.24C1416.44 416.24 1413.08 416.12 1409.72 415.88C1406.36 415.88 1403.24 415.64 1400.36 415.16C1397.48 414.68 1394.72 414.08 1392.08 413.36C1388.24 412.4 1384.76 411.08 1381.64 409.4C1378.76 407.48 1376 405.32 1373.36 402.92C1369.04 404.84 1363.4 406.88 1356.44 409.04C1349.48 411.2 1342.04 413 1334.12 414.44C1326.2 415.88 1318.28 416.6 1310.36 416.6ZM1317.2 389.96C1323.2 389.96 1329.32 389.36 1335.56 388.16C1342.04 386.96 1348.16 385.64 1353.92 384.2C1359.68 382.52 1364.36 381.08 1367.96 379.88V325.88L1320.08 330.56C1310 331.28 1302.8 334.16 1298.48 339.2C1294.16 344 1292 350.96 1292 360.08C1292 369.44 1294.04 376.76 1298.12 382.04C1302.44 387.32 1308.8 389.96 1317.2 389.96Z" fill="#161D1D"/>
<path d="M1084.65 413V232.64H1118.13V245.24C1121.97 242.84 1126.89 240.44 1132.89 238.04C1138.89 235.64 1145.25 233.6 1151.97 231.92C1158.69 230 1165.17 229.04 1171.41 229.04C1183.89 229.04 1194.09 230.72 1202.01 234.08C1210.17 237.2 1216.53 242.36 1221.09 249.56C1225.65 256.52 1228.89 265.64 1230.81 276.92C1232.73 288.2 1233.69 301.88 1233.69 317.96V413H1199.85V319.76C1199.85 304.88 1199.01 293 1197.33 284.12C1195.65 275.24 1192.29 268.88 1187.25 265.04C1182.21 260.96 1174.65 258.92 1164.57 258.92C1159.05 258.92 1153.29 259.52 1147.29 260.72C1141.53 261.92 1136.01 263.48 1130.73 265.4C1125.69 267.32 1121.49 269.12 1118.13 270.8V413H1084.65Z" fill="#161D1D"/>
<path d="M1013.88 413V232.64H1047.36V413H1013.88ZM1013.88 196.28V161.36H1047.36V196.28H1013.88Z" fill="#161D1D"/>
<path d="M911.658 413V261.08H890.418V232.64H911.658V218.6C911.658 201.32 913.218 187.88 916.338 178.28C919.458 168.44 924.738 161.72 932.178 158.12C939.618 154.28 949.458 152.36 961.698 152.36C964.818 152.36 968.898 152.48 973.938 152.72C979.218 152.96 984.258 153.32 989.058 153.8C993.858 154.04 997.338 154.4 999.498 154.88L999.138 181.88C995.058 181.64 990.138 181.52 984.378 181.52C978.618 181.52 973.938 181.52 970.338 181.52C963.858 181.52 958.818 182.6 955.218 184.76C951.618 186.68 948.978 190.4 947.298 195.92C945.858 201.2 945.138 208.76 945.138 218.6V232.64H994.818V261.08H945.138V413H911.658Z" fill="#161D1D"/>
<path d="M775.243 416.6C758.203 416.6 745.243 411.92 736.363 402.56C727.483 393.2 723.043 379.4 723.043 361.16C723.043 348.92 725.203 339.08 729.523 331.64C733.843 323.96 740.203 318.2 748.603 314.36C757.243 310.52 767.923 308.24 780.643 307.52L832.843 302.48V288.44C832.843 277.16 830.323 269.24 825.283 264.68C820.243 259.88 812.683 257.48 802.603 257.48C796.363 257.48 789.043 257.72 780.643 258.2C772.243 258.68 763.963 259.28 755.803 260C747.643 260.72 740.323 261.44 733.843 262.16L732.403 237.68C738.403 236.24 745.483 234.92 753.643 233.72C762.043 232.52 770.803 231.44 779.923 230.48C789.043 229.52 797.443 229.04 805.123 229.04C819.283 229.04 830.923 231.08 840.043 235.16C849.163 239.24 855.883 245.6 860.203 254.24C864.523 262.88 866.683 274.04 866.683 287.72V376.28C867.163 381.08 869.083 384.68 872.443 387.08C876.043 389.24 880.483 390.68 885.763 391.4L884.683 416.24C881.323 416.24 877.963 416.12 874.603 415.88C871.243 415.88 868.123 415.64 865.243 415.16C862.363 414.68 859.603 414.08 856.963 413.36C853.123 412.4 849.643 411.08 846.523 409.4C843.643 407.48 840.883 405.32 838.243 402.92C833.923 404.84 828.283 406.88 821.323 409.04C814.363 411.2 806.923 413 799.003 414.44C791.083 415.88 783.163 416.6 775.243 416.6ZM782.083 389.96C788.083 389.96 794.203 389.36 800.443 388.16C806.923 386.96 813.043 385.64 818.803 384.2C824.563 382.52 829.243 381.08 832.843 379.88V325.88L784.963 330.56C774.883 331.28 767.683 334.16 763.363 339.2C759.043 344 756.883 350.96 756.883 360.08C756.883 369.44 758.923 376.76 763.003 382.04C767.323 387.32 773.683 389.96 782.083 389.96Z" fill="#161D1D"/>
<path d="M623.36 416.6C615.68 416.6 606.8 416.12 596.72 415.16C586.88 414.2 577.16 413 567.56 411.56C557.96 410.12 549.56 408.92 542.36 407.96L545.24 379.88C552.2 380.6 560.36 381.56 569.72 382.76C579.32 383.72 588.68 384.56 597.8 385.28C606.92 386 614.72 386.36 621.2 386.36C632.24 386.36 641.36 384.8 648.56 381.68C655.76 378.32 661.16 373.4 664.76 366.92C668.36 360.44 670.16 352.04 670.16 341.72C670.16 333.32 668.48 326.72 665.12 321.92C662 316.88 656.6 312.92 648.92 310.04C641.24 306.92 630.92 304.16 617.96 301.76C604.76 299.12 593.24 296.12 583.4 292.76C573.56 289.16 565.4 284.72 558.92 279.44C552.44 274.16 547.64 267.56 544.52 259.64C541.64 251.48 540.2 241.52 540.2 229.76C540.2 212.96 543.44 199.52 549.92 189.44C556.64 179.36 566.12 172.04 578.36 167.48C590.84 162.92 605.36 160.64 621.92 160.64C629.36 160.64 637.76 161.12 647.12 162.08C656.72 162.8 666.08 163.76 675.2 164.96C684.56 166.16 692.6 167.36 699.32 168.56L696.8 197C689.84 196.04 681.68 195.2 672.32 194.48C663.2 193.52 654.32 192.68 645.68 191.96C637.04 191.24 630.08 190.88 624.8 190.88C613.76 190.88 604.52 192.2 597.08 194.84C589.88 197.48 584.36 201.44 580.52 206.72C576.92 212 575.12 218.84 575.12 227.24C575.12 236.84 576.92 244.16 580.52 249.2C584.12 254.24 590.12 258.2 598.52 261.08C606.92 263.96 617.96 267.08 631.64 270.44C644.6 273.32 655.64 276.44 664.76 279.8C674.12 283.16 681.8 287.36 687.8 292.4C693.8 297.44 698.12 303.68 700.76 311.12C703.64 318.56 705.08 327.92 705.08 339.2C705.08 357.68 701.72 372.56 695 383.84C688.52 395.12 679.16 403.4 666.92 408.68C654.68 413.96 640.16 416.6 623.36 416.6Z" fill="#161D1D"/>
<defs>
<radialGradient id="paint0_radial_59053_802" cx="0" cy="0" r="1" gradientUnits="userSpaceOnUse" gradientTransform="translate(202.75 281.25) rotate(80.064) scale(253.553 182.721)">
<stop offset="0.3" stop-color="#028488"/>
<stop offset="1" stop-color="#005C5F"/>
</radialGradient>
<radialGradient id="paint1_radial_59053_802" cx="0" cy="0" r="1" gradientUnits="userSpaceOnUse" gradientTransform="translate(202.75 281.25) rotate(80.064) scale(253.553 182.721)">
<stop offset="0.3" stop-color="#028488"/>
<stop offset="1" stop-color="#005C5F"/>
</radialGradient>
<radialGradient id="paint2_radial_59053_802" cx="0" cy="0" r="1" gradientUnits="userSpaceOnUse" gradientTransform="translate(202.75 281.25) rotate(80.064) scale(253.553 182.721)">
<stop offset="0.3" stop-color="#028488"/>
<stop offset="1" stop-color="#005C5F"/>
</radialGradient>
<radialGradient id="paint3_radial_59053_802" cx="0" cy="0" r="1" gradientUnits="userSpaceOnUse" gradientTransform="translate(202.75 281.25) rotate(80.064) scale(253.553 182.721)">
<stop offset="0.3" stop-color="#028488"/>
<stop offset="1" stop-color="#005C5F"/>
</radialGradient>
</defs>
</svg>
