<svg width="1062" height="204" viewBox="0 0 1062 204" fill="none" xmlns="http://www.w3.org/2000/svg">
<path d="M1004.92 40.6799L984.524 37.5599V22.6799H1061.32V37.5599L1040.2 40.6799V184.2L1061.32 186.84V201H984.524V186.6L1004.92 184.2V40.6799Z" fill="#161D1D"/>
<path d="M870.489 21.7198H907.209L962.649 184.2L976.569 186.6V201H905.769V186.6L923.769 184.2L914.409 153H852.249L842.889 184.44L862.329 186.6V201H801.129L800.889 186.6L815.289 184.2L870.489 21.7198ZM887.049 62.2799L882.729 43.5599L878.169 62.5199L856.809 136.2H909.609L887.049 62.2799Z" fill="#161D1D"/>
<path d="M620.238 163.56C620.238 149 627.518 138.04 642.078 130.68C656.798 123.32 675.758 119.56 698.958 119.4V113.88C698.958 107.32 698.238 102.2 696.798 98.5199C695.518 94.8399 693.038 92.1199 689.358 90.3599C685.838 88.4399 680.638 87.4799 673.758 87.4799C665.918 87.4799 658.878 88.5199 652.638 90.5999C646.398 92.5199 639.918 95.0799 633.198 98.2799L625.758 82.9199C628.158 80.8399 632.158 78.3599 637.758 75.4799C643.518 72.5999 650.318 70.1199 658.158 68.0399C665.998 65.7999 674.078 64.6799 682.398 64.6799C694.718 64.6799 704.318 66.2799 711.198 69.4799C718.238 72.6799 723.278 77.7999 726.318 84.8399C729.358 91.8799 730.878 101.32 730.878 113.16V186.6H743.838V200.04C740.638 200.84 736.078 201.64 730.158 202.44C724.238 203.24 719.038 203.64 714.558 203.64C709.118 203.64 705.438 202.84 703.518 201.24C701.758 199.64 700.878 196.36 700.878 191.4V184.92C696.558 189.72 690.958 194.04 684.078 197.88C677.198 201.72 669.438 203.64 660.798 203.64C653.438 203.64 646.638 202.12 640.398 199.08C634.318 195.88 629.438 191.32 625.758 185.4C622.078 179.32 620.238 172.04 620.238 163.56ZM676.158 183.72C679.518 183.72 683.358 182.76 687.678 180.84C691.998 178.76 695.758 176.28 698.958 173.4V134.04C684.558 134.04 673.758 136.52 666.558 141.48C659.518 146.28 655.998 152.52 655.998 160.2C655.998 167.88 657.758 173.72 661.278 177.72C664.958 181.72 669.918 183.72 676.158 183.72Z" fill="#161D1D"/>
<path d="M472.959 90.3599L457.599 86.0399V69.4799L497.439 64.4399H498.159L504.159 69.2399V78.5999L503.919 84.3599C509.519 79.0799 516.799 74.5199 525.759 70.6799C534.719 66.8399 543.759 64.9199 552.879 64.9199C562.639 64.9199 570.239 66.7599 575.679 70.4399C581.279 73.9599 585.279 79.5599 587.679 87.2399C590.079 94.9199 591.279 105.32 591.279 118.44V184.68L605.919 186.6V201H543.999V186.6L556.959 184.68V118.44C556.959 110.12 556.399 103.64 555.279 98.9999C554.159 94.1999 552.079 90.7599 549.039 88.6799C546.159 86.4399 541.999 85.3199 536.559 85.3199C527.439 85.3199 517.679 89.2399 507.279 97.0799V184.44L521.679 186.6V201H459.039V186.6L472.959 184.44V90.3599Z" fill="#161D1D"/>
<path d="M294.907 86.2799H274.747V72.8398L294.907 68.0398V57.4798C294.907 47.0798 297.627 37.5598 303.067 28.9199C308.667 20.2799 316.107 13.4798 325.387 8.51984C334.667 3.39984 344.507 0.839844 354.907 0.839844C360.347 0.839844 365.467 1.63984 370.267 3.23984V33.9598C368.667 32.3598 365.467 30.7598 360.667 29.1599C356.027 27.5599 351.147 26.7599 346.027 26.7599C339.787 26.7599 335.307 28.3598 332.587 31.5598C330.027 34.5998 328.747 39.8798 328.747 47.3998V67.7999H359.227V86.2799H328.747V184.68L353.947 186.6V201H275.947V186.6L294.907 184.44V86.2799ZM404.827 45.7198C399.067 45.7198 394.507 44.0399 391.147 40.6798C387.787 37.3199 386.107 32.9998 386.107 27.7198C386.107 21.6398 388.027 16.5998 391.867 12.5998C395.707 8.59984 400.827 6.59984 407.227 6.59984C413.627 6.59984 418.507 8.35984 421.867 11.8798C425.227 15.2398 426.907 19.4799 426.907 24.5999C426.907 30.9998 424.987 36.1198 421.147 39.9599C417.307 43.7999 411.947 45.7198 405.067 45.7198H404.827ZM392.107 90.3598L375.067 85.7999V69.7198L418.987 64.4399H419.467L426.187 69.2398V184.68L442.267 186.6V201H375.307V186.6L392.107 184.44V90.3598Z" fill="#161D1D"/>
<path d="M139.769 163.56C139.769 149 147.049 138.04 161.609 130.68C176.329 123.32 195.289 119.56 218.489 119.4V113.88C218.489 107.32 217.769 102.2 216.329 98.5199C215.049 94.8399 212.569 92.1199 208.889 90.3599C205.369 88.4399 200.169 87.4799 193.289 87.4799C185.449 87.4799 178.409 88.5199 172.169 90.5999C165.929 92.5199 159.449 95.0799 152.729 98.2799L145.289 82.9199C147.689 80.8399 151.689 78.3599 157.289 75.4799C163.049 72.5999 169.849 70.1199 177.689 68.0399C185.529 65.7999 193.609 64.6799 201.929 64.6799C214.249 64.6799 223.849 66.2799 230.729 69.4799C237.769 72.6799 242.809 77.7999 245.849 84.8399C248.889 91.8799 250.409 101.32 250.409 113.16V186.6H263.369V200.04C260.169 200.84 255.609 201.64 249.689 202.44C243.769 203.24 238.569 203.64 234.089 203.64C228.649 203.64 224.969 202.84 223.049 201.24C221.289 199.64 220.409 196.36 220.409 191.4V184.92C216.089 189.72 210.489 194.04 203.609 197.88C196.729 201.72 188.969 203.64 180.329 203.64C172.969 203.64 166.169 202.12 159.929 199.08C153.849 195.88 148.969 191.32 145.289 185.4C141.609 179.32 139.769 172.04 139.769 163.56ZM195.689 183.72C199.049 183.72 202.889 182.76 207.209 180.84C211.529 178.76 215.289 176.28 218.489 173.4V134.04C204.089 134.04 193.289 136.52 186.089 141.48C179.049 146.28 175.529 152.52 175.529 160.2C175.529 167.88 177.289 173.72 180.809 177.72C184.489 181.72 189.449 183.72 195.689 183.72Z" fill="#161D1D"/>
<path d="M58.28 203.64C49.64 203.64 41.88 202.92 35 201.48C28.12 200.04 20.44 198.12 11.96 195.72C6.35999 194.12 2.59999 193.24 0.679993 193.08L2.83999 148.68H22.28L27.56 179.64C29.64 181.88 33.32 183.88 38.6 185.64C44.04 187.4 50.2 188.28 57.08 188.28C67.8 188.28 75.8 185.96 81.08 181.32C86.52 176.52 89.24 169.88 89.24 161.4C89.24 155.8 87.64 151 84.44 147C81.24 142.84 76.84 139.16 71.24 135.96C65.64 132.6 57.96 128.76 48.2 124.44C34.92 118.36 23.88 111.16 15.08 102.84C6.43999 94.3599 2.11999 82.9199 2.11999 68.5199C2.11999 59.5599 4.43999 51.4799 9.07999 44.2799C13.72 36.9199 20.6 31.1599 29.72 26.9999C39 22.6799 50.28 20.5199 63.56 20.5199C71.4 20.5199 78.28 21.0799 84.2 22.1999C90.28 23.3199 96.84 24.8399 103.88 26.7599C108.04 27.8799 111.16 28.5999 113.24 28.9199L111.8 70.9199H92.6L87.56 41.3999C86.12 39.9599 83.24 38.5999 78.92 37.3199C74.6 35.8799 69.8 35.1599 64.52 35.1599C54.92 35.1599 47.64 37.3999 42.68 41.8799C37.88 46.1999 35.48 52.0399 35.48 59.3999C35.48 65.3199 37.24 70.4399 40.76 74.7599C44.44 79.0799 48.84 82.7599 53.96 85.7999C59.08 88.6799 67.16 92.8399 78.2 98.2799C87.16 102.6 94.84 106.84 101.24 111C107.64 115.16 113.16 120.6 117.8 127.32C122.44 133.88 124.76 141.64 124.76 150.6C124.76 159.4 122.52 167.8 118.04 175.8C113.72 183.8 106.52 190.44 96.44 195.72C86.52 201 73.8 203.64 58.28 203.64Z" fill="#161D1D"/>
</svg>
