<svg width="32" height="32" viewBox="0 0 32 32" fill="none" xmlns="http://www.w3.org/2000/svg">
<rect width="32" height="32" fill="url(#paint0_radial_59061_6440)"/>
<path d="M25.0225 15.2001C23.8447 14.7557 22.4446 14.0237 21.6757 13.2858C20.0979 11.7717 19.5868 10.3245 19.6312 8.58777C19.6757 6.85106 20.9423 4.73584 22.5868 3.51123C18.7646 5.18115 17.4534 6.67294 17.009 8.43191C16.5645 10.1909 17.009 11.9276 18.4979 13.2858C20.0669 14.7171 22.5113 15.3779 25.0225 15.2001Z" fill="white"/>
<path d="M16.964 15.9111L16.9639 15.9111C16.859 15.8485 16.7718 15.7966 16.7084 15.7563C16.3597 15.5347 14.8616 14.572 14.2312 13.9969C12.7423 12.6387 12.2979 10.902 12.7423 9.14303C13.1868 7.38405 14.4979 5.89226 18.3201 4.22234C16.6757 5.44695 15.409 7.56217 15.3645 9.29889C15.3201 11.0356 15.8312 12.4829 17.409 13.9969C18.0819 14.6426 19.1588 15.2739 19.6722 15.5748C19.7454 15.6177 19.8072 15.6539 19.8547 15.6825C20.2349 15.9112 21.445 16.7171 22.0754 17.2922C23.5643 18.6504 24.0088 20.3871 23.5643 22.1461C23.1199 23.9051 21.8088 25.3969 17.9866 27.0668C19.631 25.8422 20.8977 23.727 20.9421 21.9902C20.9866 20.2535 20.4754 18.8063 18.8977 17.2922C18.2685 16.6884 17.4367 16.1928 16.964 15.9111Z" fill="white"/>
<path d="M12.6974 16.6222L12.6973 16.6222C12.5924 16.5597 12.5051 16.5077 12.4418 16.4674C12.093 16.2458 10.595 15.2831 9.96455 14.708C8.47566 13.3498 8.03122 11.6131 8.47566 9.85414C8.92011 8.09516 10.2312 6.60337 14.0534 4.93345C12.409 6.15806 11.1423 8.27328 11.0979 10.01C11.0534 11.7467 11.5645 13.194 13.1423 14.708C13.8152 15.3538 14.8922 15.985 15.4055 16.2859C15.4787 16.3288 15.5405 16.3651 15.588 16.3936C15.9682 16.6223 17.1784 17.4282 17.8088 18.0033C19.2977 19.3615 19.7421 21.0982 19.2977 22.8572C18.8532 24.6162 17.5421 26.108 13.7199 27.7779C15.3643 26.5533 16.631 24.4381 16.6754 22.7014C16.7199 20.9646 16.2088 19.5174 14.631 18.0033C14.0018 17.3996 13.17 16.9039 12.6974 16.6222Z" fill="white"/>
<path d="M10.3693 18.7144C9.60032 17.9765 8.20024 17.2446 7.02246 16.8001C9.53357 16.6223 11.978 17.2831 13.547 18.7144C15.0359 20.0726 15.4804 21.8093 15.0359 23.5683C14.5915 25.3273 13.2804 26.8191 9.45815 28.489C11.1026 27.2644 12.3693 25.1492 12.4137 23.4125C12.4581 21.6758 11.947 20.2285 10.3693 18.7144Z" fill="white"/>
<defs>
<radialGradient id="paint0_radial_59061_6440" cx="0" cy="0" r="1" gradientUnits="userSpaceOnUse" gradientTransform="translate(16.0198 16.0142) rotate(76.3374) scale(14.6348 14.2423)">
<stop offset="0.3" stop-color="#028488"/>
<stop offset="1" stop-color="#005C5F"/>
</radialGradient>
</defs>
</svg>
