<svg xmlns="http://www.w3.org/2000/svg" version="1.1" xmlns:xlink="http://www.w3.org/1999/xlink" xmlns:svgjs="http://svgjs.dev/svgjs" width="720" height="720"><svg width="720" height="720" viewBox="0 0 720 720" fill="none" xmlns="http://www.w3.org/2000/svg">
<rect width="720" height="720" fill="url(#paint0_radial_59053_809)"></rect>
<path d="M563 342C536.5 332 504.998 315.53 487.697 298.928C452.197 264.862 440.697 232.298 441.697 193.222C442.697 154.146 471.197 106.554 508.197 79C422.197 116.573 392.697 150.138 382.697 189.715C372.697 229.292 382.697 268.368 416.197 298.928C451.5 331.132 506.5 346 563 342Z" fill="white" style="--darkreader-inline-fill: #181a1b;" data-darkreader-inline-fill=""></path>
<path d="M381.686 357.998L381.683 357.996C379.322 356.589 377.36 355.42 375.934 354.514C368.088 349.528 334.381 327.867 320.197 314.928C286.697 284.368 276.697 245.292 286.697 205.715C296.697 166.138 326.197 132.573 412.197 95C375.197 122.554 346.697 170.146 345.697 209.222C344.697 248.298 356.197 280.862 391.697 314.928C406.837 329.457 431.068 343.66 442.618 350.43C444.267 351.396 445.657 352.211 446.725 352.854C455.28 358 482.508 376.133 496.692 389.072C530.192 419.632 540.192 458.708 530.192 498.285C520.192 537.862 490.692 571.427 404.692 609C441.692 581.446 470.192 533.854 471.192 494.778C472.192 455.702 460.692 423.138 425.192 389.072C411.036 375.487 392.32 364.335 381.686 357.998Z" fill="white" style="--darkreader-inline-fill: #181a1b;" data-darkreader-inline-fill=""></path>
<path d="M285.686 373.998L285.684 373.997C283.323 372.59 281.36 371.42 279.934 370.514C272.088 365.528 238.381 343.867 224.197 330.928C190.697 300.368 180.697 261.292 190.697 221.715C200.697 182.138 230.197 148.573 316.197 111C279.197 138.554 250.697 186.146 249.697 225.222C248.697 264.298 260.197 296.862 295.697 330.928C310.837 345.457 335.068 359.66 346.618 366.43C348.266 367.396 349.657 368.211 350.725 368.854C359.28 374 386.508 392.133 400.692 405.072C434.192 435.632 444.192 474.708 434.192 514.285C424.192 553.862 394.692 587.427 308.692 625C345.692 597.446 374.192 549.854 375.192 510.778C376.192 471.702 364.692 439.138 329.192 405.072C315.036 391.487 296.32 380.335 285.686 373.998Z" fill="white" style="--darkreader-inline-fill: #181a1b;" data-darkreader-inline-fill=""></path>
<path d="M233.303 421.072C216.002 404.47 184.5 388 158 378C214.5 374 269.5 388.868 304.803 421.072C338.303 451.632 348.303 490.708 338.303 530.285C328.303 569.862 298.803 603.427 212.803 641C249.803 613.446 278.303 565.854 279.303 526.778C280.303 487.702 268.803 455.138 233.303 421.072Z" fill="white" style="--darkreader-inline-fill: #181a1b;" data-darkreader-inline-fill=""></path>
<defs>
<radialGradient id="SvgjsRadialGradient1005" cx="0" cy="0" r="1" gradientUnits="userSpaceOnUse" gradientTransform="translate(360.444 360.32) rotate(76.3374) scale(329.282 320.451)">
<stop offset="0.3" stop-color="#028488" style="--darkreader-inline-stopcolor: #026a6d;" data-darkreader-inline-stopcolor=""></stop>
<stop offset="1" stop-color="#005C5F" style="--darkreader-inline-stopcolor: #004a4c;" data-darkreader-inline-stopcolor=""></stop>
</radialGradient>
</defs>
</svg><style>@media (prefers-color-scheme: light) { :root { filter: none; } }
@media (prefers-color-scheme: dark) { :root { filter: none; } }
</style></svg>