<svg width="16" height="16" viewBox="0 0 16 16" fill="none" xmlns="http://www.w3.org/2000/svg">
<rect width="16" height="16" fill="url(#paint0_radial_59061_6442)"/>
<path d="M12.5112 7.59982C11.9223 7.37759 11.2223 7.0116 10.8378 6.64266C10.0489 5.88563 9.79339 5.162 9.81561 4.29364C9.83783 3.42529 10.4712 2.36767 11.2934 1.75537C9.38228 2.59033 8.72672 3.33622 8.5045 4.21571C8.28227 5.0952 8.5045 5.96356 9.24894 6.64266C10.0335 7.35831 11.2557 7.6887 12.5112 7.59982Z" fill="white"/>
<path d="M8.48202 7.95532L8.48197 7.95529C8.4295 7.92403 8.38589 7.89804 8.35421 7.8779C8.17985 7.7671 7.43082 7.28576 7.11561 6.99821C6.37116 6.31911 6.14894 5.45076 6.37116 4.57127C6.59339 3.69178 7.24895 2.94588 9.16005 2.11093C8.33783 2.72323 7.7045 3.78084 7.68227 4.6492C7.66005 5.51755 7.91561 6.24118 8.7045 6.99821C9.04095 7.32108 9.57941 7.6367 9.83608 7.78715C9.87271 7.80862 9.9036 7.82673 9.92734 7.84101C10.1175 7.95537 10.7225 8.35832 11.0377 8.64586C11.7822 9.32496 12.0044 10.1933 11.7822 11.0728C11.5599 11.9523 10.9044 12.6982 8.99328 13.5331C9.8155 12.9208 10.4488 11.8632 10.4711 10.9949C10.4933 10.1265 10.2377 9.40289 9.44883 8.64586C9.13424 8.34398 8.71834 8.09614 8.48202 7.95532Z" fill="white"/>
<path d="M6.34869 8.31088L6.34865 8.31085C6.29618 8.27959 6.25256 8.25359 6.22088 8.23346C6.04652 8.12266 5.29749 7.64131 4.98227 7.35377C4.23783 6.67467 4.01561 5.80631 4.23783 4.92682C4.46005 4.04734 5.11561 3.30144 7.02672 2.46648C6.2045 3.07878 5.57116 4.1364 5.54894 5.00475C5.52672 5.87311 5.78227 6.59674 6.57116 7.35377C6.90762 7.67663 7.44608 7.99226 7.70274 8.1427C7.73937 8.16417 7.77027 8.18228 7.79401 8.19657C7.98412 8.31093 8.58918 8.71388 8.90439 9.00142C9.64883 9.68052 9.87106 10.5489 9.64883 11.4284C9.42661 12.3079 8.77105 13.0537 6.85995 13.8887C7.68217 13.2764 8.3155 12.2188 8.33772 11.3504C8.35995 10.4821 8.10439 9.75845 7.3155 9.00142C7.00091 8.69953 6.58501 8.4517 6.34869 8.31088Z" fill="white"/>
<path d="M5.18463 9.35697C4.80016 8.98803 4.10012 8.62204 3.51123 8.39982C4.76679 8.31093 5.98901 8.64133 6.77352 9.35697C7.51796 10.0361 7.74018 10.9044 7.51796 11.7839C7.29574 12.6634 6.64018 13.4093 4.72907 14.2443C5.5513 13.632 6.18463 12.5743 6.20685 11.706C6.22907 10.8376 5.97352 10.114 5.18463 9.35697Z" fill="white"/>
<defs>
<radialGradient id="paint0_radial_59061_6442" cx="0" cy="0" r="1" gradientUnits="userSpaceOnUse" gradientTransform="translate(8.00988 8.00712) rotate(76.3374) scale(7.31738 7.12114)">
<stop offset="0.3" stop-color="#028488"/>
<stop offset="1" stop-color="#005C5F"/>
</radialGradient>
</defs>
</svg>
